Coordinates
version=1
nRows=10
nColumns=28
inDegrees=yes

Units are S.I. units (second, meters, Newtons, ...)
Angles are in degrees.

endheader
time	pelvis_tilt	pelvis_list	pelvis_rotation	pelvis_tx	pelvis_ty	pelvis_tz	hip_flexion_r	hip_adduction_r	hip_rotation_r	knee_angle_r	ankle_angle_r	subtalar_angle_r	mtp_angle_r	hip_flexion_l	hip_adduction_l	hip_rotation_l	knee_angle_l	socket_flexion	socket_adduction	socket_rotation	socket_tx	socket_ty	socket_tz	foot_flex	lumbar_extension	lumbar_bending	lumbar_rotation
      0.32500000	      3.96038839	     -2.93358702	     -6.24366356	     -0.42333869	      1.01828676	      0.29237483	     11.95511156	      4.72464122	      3.68112146	    -64.69678575	     -3.86737964	    -20.50306488	     26.64072689	     -1.55091538	     -0.85082336	     -5.02176249	     -3.42013385	      1.21592836	      0.60296994	     13.68407593	      0.02209367	     -0.00930437	     -0.00216990	      1.35853284	    -12.86031448	     -1.25200540	      6.76126924
      0.32916667	      3.96500399	     -3.02229709	     -6.12731971	     -0.41838430	      1.01852894	      0.29186375	     12.50151477	      4.85281045	      3.59438665	    -64.43536007	     -3.55927310	    -20.36151412	     26.72440134	     -2.04092184	     -0.89309606	     -4.99326380	     -3.29939099	      1.11589525	      0.57666048	     13.92191840	      0.02088600	     -0.00931803	     -0.00189531	      1.65330889	    -12.83222172	     -1.10120419	      6.67293660
      0.33333333	      4.03218858	     -3.02646356	     -6.01850071	     -0.41397809	      1.01894899	      0.29144001	     13.00476936	      4.91691530	      3.59667183	    -64.09921436	     -3.46572742	    -20.33298232	     26.74217971	     -2.27448406	     -0.86965105	     -5.03868318	     -3.34114944	      1.13673393	      0.61340463	     13.94020437	      0.02186258	     -0.00898438	     -0.00229757	      1.66628897	    -12.98579978	     -1.08904810	      6.64963351
      0.33750000	      4.07880284	     -3.42469402	     -5.99275959	     -0.40875955	      1.01914162	      0.29121351	     13.34509654	      5.45466058	      3.68806994	    -63.64380135	     -2.28551535	    -19.38869925	     27.13058424	     -3.04710230	     -1.41623031	     -5.05028962	     -3.10626128	      0.88197993	      0.78578860	     14.04126604	      0.01908213	     -0.00969530	     -0.00364626	      1.73564907	    -13.00190029	     -0.52658366	      6.14439790
      0.34166667	      4.14531981	     -3.41630850	     -5.87988648	     -0.40442966	      1.01947090	      0.29086772	     13.84819984	      5.50341078	      3.67613553	    -63.27493984	     -2.23748760	    -19.36748725	     27.13351821	     -3.27664768	     -1.38134135	     -5.07583671	     -3.14852594	      0.90427142	      0.82260851	     14.08214495	      0.02003904	     -0.00940725	     -0.00393135	      1.79263167	    -13.15638405	     -0.54427106	      6.14265744
      0.34583333	      4.13967761	     -3.48027732	     -5.72079710	     -0.39928157	      1.01979843	      0.29038040	     14.27190705	      5.61122096	      3.63311857	    -62.71676044	     -1.98824713	    -19.25887833	     27.17361565	     -3.73130384	     -1.39375765	     -5.03556548	     -3.03962105	      0.81791582	      0.78176872	     14.32076900	      0.01911202	     -0.00919594	     -0.00356647	      2.07757460	    -13.07712260	     -0.45260629	      6.08553349
      0.35000000	      4.15827673	     -3.62193262	     -5.60704663	     -0.39431818	      1.02001285	      0.28983732	     14.68715625	      5.78264953	      3.57974900	    -62.19394260	     -1.58046722	    -19.07620425	     27.24571929	     -4.21595586	     -1.48029951	     -5.08424739	     -2.92323535	      0.72014686	      0.74979866	     14.45505597	      0.01816272	     -0.00924244	     -0.00326267	      2.19657125	    -13.06447579	     -0.21683826	      5.94363592
      0.35416667	      4.22495224	     -3.61734868	     -5.52006393	     -0.39017911	      1.02016553	      0.28951293	     15.20291188	      5.83179905	      3.58367431	    -61.81142505	     -1.50745359	    -19.05538355	     27.25132205	     -4.43439563	     -1.46484633	     -5.11340313	     -2.96689982	      0.74284009	      0.78888673	     14.48499420	      0.01908130	     -0.00909465	     -0.00374651	      2.21178878	    -13.26137016	     -0.21987065	      5.92362923
      0.35833333	      4.22356332	     -3.71165468	     -5.37388797	     -0.38506516	      1.02044924	      0.28918668	     15.55082783	      6.00597027	      3.62274990	    -61.11884098	     -1.13246489	    -18.92865012	     27.29723307	     -4.90177923	     -1.54848081	     -5.09119078	     -2.85366874	      0.64108078	      0.78897830	     14.70051318	      0.01808982	     -0.00892941	     -0.00361236	      2.41707973	    -13.18684485	     -0.09447834	      5.77795054
      0.36250000	      4.28348277	     -3.71679630	     -5.29637995	     -0.38099161	      1.02047525	      0.28882242	     16.07355216	      6.04382621	      3.61062933	    -60.72145336	     -1.04913128	    -18.91309320	     27.30106016	     -5.12642878	     -1.53798969	     -5.13605757	     -2.88711212	      0.65739492	      0.81816733	     14.72373190	      0.01887672	     -0.00890869	     -0.00405194	      2.43267984	    -13.38977129	     -0.07807617	      5.75367149
